<svg width="18" height="17" viewBox="0 0 18 17" fill="none" xmlns="http://www.w3.org/2000/svg">
<path d="M17.2422 16.332C16.9948 16.319 16.7539 16.2995 16.5195 16.2734C16.3242 16.2474 16.1289 16.2279 15.9336 16.2148C15.7513 16.2018 15.6146 16.1953 15.5234 16.1953C15.0156 16.1953 14.5078 16.2018 14 16.2148C13.4922 16.2409 12.9909 16.2799 12.4961 16.332C12.5091 15.7852 12.5156 15.2513 12.5156 14.7305C12.5286 14.1966 12.5352 13.6562 12.5352 13.1094C12.5352 12.1328 12.5156 11.1628 12.4766 10.1992C12.4505 9.23568 12.4245 8.27214 12.3984 7.30859L8.29688 16.5859C7.69792 14.9583 7.05339 13.3633 6.36328 11.8008C5.6862 10.2253 4.97656 8.65625 4.23438 7.09375L4.54688 16.7422C4.40365 16.7422 4.25391 16.7357 4.09766 16.7227C3.95443 16.7227 3.80469 16.7227 3.64844 16.7227C3.15365 16.7227 2.66536 16.7422 2.18359 16.7812C1.71484 16.8203 1.23958 16.8594 0.757812 16.8984C0.822917 15.6875 0.888021 14.4831 0.953125 13.2852C1.01823 12.0872 1.05078 10.8828 1.05078 9.67188C1.05078 8.2526 1.03776 6.83984 1.01172 5.43359C0.998698 4.02734 0.985677 2.61458 0.972656 1.19531C1.91016 1.19531 2.82161 1.16927 3.70703 1.11719C4.60547 1.0651 5.52344 0.99349 6.46094 0.902344C6.77344 1.94401 7.09245 2.97917 7.41797 4.00781C7.75651 5.02344 8.11458 6.03906 8.49219 7.05469C8.89583 6.09115 9.35156 5.14714 9.85938 4.22266C10.3802 3.29818 10.9076 2.38021 11.4414 1.46875C12.3268 1.44271 13.1992 1.41667 14.0586 1.39062C14.931 1.36458 15.8099 1.34505 16.6953 1.33203C16.7344 2.50391 16.7799 3.66276 16.832 4.80859C16.8971 5.95443 16.9557 7.11328 17.0078 8.28516C17.0469 9.20964 17.0794 10.1341 17.1055 11.0586C17.1445 11.9831 17.1771 12.901 17.2031 13.8125L17.2422 15.4531V16.332Z" fill="#E43C22"/>
</svg>
