<svg width="16" height="20" viewBox="0 0 16 20" fill="none" xmlns="http://www.w3.org/2000/svg">
<path d="M15.5 10.8043C15.5 15.6195 12.0833 19.4094 8 19.4094C3.91669 19.4094 0.5 15.6195 0.5 10.8043C0.5 5.98911 3.91669 2.19922 8 2.19922C12.0833 2.19922 15.5 5.98911 15.5 10.8043Z" stroke="#929292"/>
<path d="M12.6625 11.8315V12.6715C12.6625 13.1382 12.5552 13.5815 12.3405 14.0015C12.1352 14.4215 11.8365 14.7902 11.4445 15.1075C11.0525 15.4248 10.5718 15.6768 10.0025 15.8635C9.43317 16.0502 8.79384 16.1435 8.0845 16.1435C7.37517 16.1435 6.73584 16.0315 6.1665 15.8075C5.6065 15.5928 5.12584 15.2848 4.7245 14.8835C4.3325 14.4915 4.02917 14.0248 3.8145 13.4835C3.60917 12.9328 3.5065 12.3355 3.5065 11.6915V9.1855C3.5065 8.5415 3.60917 7.94883 3.8145 7.4075C4.02917 6.86617 4.3325 6.3995 4.7245 6.0075C5.12584 5.60617 5.6065 5.2935 6.1665 5.0695C6.73584 4.8455 7.37517 4.7335 8.0845 4.7335C8.79384 4.7335 9.43317 4.8315 10.0025 5.0275C10.5718 5.21417 11.0525 5.46617 11.4445 5.7835C11.8365 6.10083 12.1352 6.4695 12.3405 6.8895C12.5552 7.3095 12.6625 7.74817 12.6625 8.2055V8.9055H11.0665V8.3455C11.0665 7.7295 10.8238 7.1975 10.3385 6.7495C9.84384 6.3015 9.0925 6.0775 8.0845 6.0775C7.11384 6.0775 6.3765 6.37617 5.8725 6.9735C5.35917 7.57083 5.1025 8.35483 5.1025 9.3255V11.5515C5.1025 12.0462 5.16317 12.4942 5.2845 12.8955C5.41517 13.2875 5.6065 13.6282 5.8585 13.9175C6.1105 14.1975 6.42317 14.4168 6.7965 14.5755C7.16984 14.7248 7.59917 14.7995 8.0845 14.7995C9.0925 14.7995 9.84384 14.5755 10.3385 14.1275C10.8238 13.6982 11.0665 13.1662 11.0665 12.5315V11.8315H12.6625Z" fill="#929292"/>
</svg>
